<?xml version="1.0" standalone="no"?>
<!DOCTYPE svg PUBLIC "-//W3C//DTD SVG 20010904//EN"
 "http://www.w3.org/TR/2001/REC-SVG-20010904/DTD/svg10.dtd">
<svg version="1.0" xmlns="http://www.w3.org/2000/svg"
 width="1536.000000pt" height="1024.000000pt" viewBox="0 0 1536.000000 1024.000000"
 preserveAspectRatio="xMidYMid meet">

<g transform="translate(0.000000,1024.000000) scale(0.100000,-0.100000)"
fill="#000000" stroke="none">
<path d="M3710 6361 l0 -421 155 0 155 0 0 265 0 265 163 0 c188 0 298 -16
414 -58 349 -128 600 -452 653 -841 34 -243 -22 -508 -148 -711 -203 -326
-521 -490 -954 -490 l-128 0 0 245 0 245 -155 0 -155 0 0 -395 0 -395 283 0
c300 0 425 11 577 50 446 114 825 489 939 930 139 535 -12 1064 -401 1405
-170 149 -370 244 -633 302 -52 11 -159 16 -417 20 l-348 5 0 -421z"/>
<path d="M9190 6256 c-123 -33 -218 -113 -278 -235 -37 -74 -37 -76 -37 -200
0 -117 2 -130 28 -185 88 -188 276 -284 499 -256 260 32 429 252 390 507 -30
192 -160 334 -340 372 -69 14 -205 13 -262 -3z m232 -157 c59 -15 119 -68 153
-134 27 -52 30 -68 30 -149 0 -77 -4 -98 -25 -140 -46 -91 -131 -139 -245
-140 -116 -1 -201 49 -253 149 -36 70 -38 196 -4 270 62 134 183 185 344 144z"/>
<path d="M6090 5825 l0 -435 210 0 c228 0 286 8 370 50 146 74 230 214 230
385 0 215 -137 387 -340 425 -29 5 -147 10 -261 10 l-209 0 0 -435z m468 256
c106 -47 159 -150 149 -287 -8 -111 -50 -175 -147 -225 -38 -19 -65 -23 -167
-27 l-123 -4 0 287 0 287 118 -4 c95 -3 127 -8 170 -27z"/>
<path d="M7100 5825 l0 -435 324 0 324 0 4 68 c3 37 3 70 1 75 -2 4 -110 7
-239 7 l-234 0 0 110 0 110 200 0 200 0 0 70 0 70 -200 0 -200 0 0 105 0 105
225 0 225 0 0 75 0 75 -315 0 -315 0 0 -435z"/>
<path d="M8077 5834 c95 -235 173 -431 173 -435 0 -5 42 -9 94 -9 l94 0 171
429 c94 236 171 432 171 435 0 3 -43 6 -95 6 -70 0 -95 -3 -95 -13 0 -7 -52
-148 -115 -315 -63 -166 -115 -307 -115 -312 0 -25 -18 -6 -29 32 -10 32 -108
288 -228 596 -4 8 -34 12 -103 12 l-97 0 174 -426z"/>
<path d="M9990 5826 l0 -436 90 0 89 0 3 152 3 152 72 -1 c39 0 76 -4 82 -7 6
-4 56 -72 112 -151 l102 -145 108 0 109 0 -45 58 c-74 94 -206 274 -203 276 2
1 22 10 45 20 51 22 107 79 128 128 9 22 15 67 15 110 0 121 -50 202 -155 250
-47 22 -64 23 -302 26 l-253 3 0 -435z m445 270 c74 -22 107 -112 69 -191 -25
-54 -88 -75 -223 -75 l-111 0 0 140 0 140 113 -1 c61 0 130 -6 152 -13z"/>
<path d="M11120 6103 c-35 -87 -113 -275 -173 -418 -60 -143 -111 -268 -114
-278 -5 -16 2 -18 87 -15 l92 3 41 103 40 102 182 0 183 0 38 -97 c20 -54 40
-102 44 -106 4 -4 48 -6 98 -5 l91 3 -35 80 c-20 44 -43 100 -53 125 -10 25
-68 162 -128 305 -60 143 -118 281 -129 307 l-19 48 -91 0 -90 0 -64 -157z
m219 -195 c34 -86 61 -162 61 -167 0 -7 -45 -11 -130 -11 l-130 0 19 48 c93
240 114 292 116 290 2 -2 30 -74 64 -160z"/>
<path d="M4470 5734 c-37 -13 -62 -30 -73 -49 -7 -12 -12 -73 -12 -155 -1
-201 -43 -335 -154 -485 -28 -38 -49 -74 -47 -80 13 -36 149 47 242 149 70 77
130 188 158 293 19 71 23 224 7 265 -16 42 -81 75 -121 62z"/>
<path d="M3585 5651 c-100 -47 -155 -130 -155 -236 0 -135 90 -238 230 -263
214 -39 383 135 325 333 -13 45 -28 69 -68 110 -91 90 -216 111 -332 56z"/>
<path d="M6591 4981 c-20 -28 -20 -29 -2 -24 11 3 29 16 42 29 22 24 22 24 1
24 -11 0 -30 -13 -41 -29z"/>
<path d="M6110 4836 l0 -166 83 0 c141 0 212 55 211 165 0 63 -23 107 -70 135
-28 18 -56 24 -130 28 l-94 5 0 -167z m201 101 c41 -27 59 -74 49 -129 -13
-70 -69 -108 -160 -108 l-50 0 0 130 0 130 64 0 c49 0 71 -5 97 -23z"/>
<path d="M7290 4835 c0 -158 1 -165 20 -165 19 0 20 7 20 165 0 158 -1 165
-20 165 -19 0 -20 -7 -20 -165z"/>
<path d="M10494 4835 c0 -152 2 -165 18 -165 10 0 18 7 18 15 0 19 9 19 31 -1
21 -19 77 -21 109 -4 26 14 50 67 50 112 0 39 -30 92 -61 108 -27 15 -85 6
-110 -16 -18 -17 -19 -15 -19 49 0 58 -2 67 -18 67 -17 0 -18 -12 -18 -165z
m141 39 c8 -4 22 -19 30 -35 34 -65 2 -139 -60 -139 -78 0 -102 116 -36 167
18 14 41 16 66 7z"/>
<path d="M9534 4939 c4 -23 1 -28 -16 -31 -28 -4 -35 -28 -10 -35 18 -4 20
-15 24 -94 3 -100 9 -109 71 -109 48 0 52 27 5 32 l-33 3 0 85 0 84 30 1 c43
0 40 29 -2 33 -28 3 -33 7 -33 30 0 21 -5 28 -21 28 -17 0 -20 -5 -15 -27z"/>
<path d="M6514 4892 c-64 -41 -72 -143 -14 -194 24 -22 40 -28 79 -28 55 0
112 33 91 54 -8 8 -13 7 -20 -4 -5 -8 -10 -11 -10 -5 0 5 -5 4 -12 -3 -7 -7
-28 -12 -48 -12 -39 0 -80 32 -80 63 0 15 13 17 96 17 l97 0 -6 37 c-13 77
-105 117 -173 75z m116 -36 c37 -40 23 -51 -59 -48 -39 2 -71 8 -71 13 0 6 11
21 25 34 32 33 74 33 105 1z m-77 -63 c-7 -2 -19 -2 -25 0 -7 3 -2 5 12 5 14
0 19 -2 13 -5z"/>
<path d="M6734 4893 c3 -10 23 -63 45 -118 33 -86 42 -100 63 -103 22 -3 28 6
67 105 24 59 45 114 48 121 3 7 -3 12 -14 12 -15 0 -27 -18 -51 -81 -18 -44
-32 -87 -32 -95 0 -39 -26 0 -55 82 -26 72 -37 90 -55 92 -17 3 -21 0 -16 -15z"/>
<path d="M7035 4877 c-43 -43 -52 -79 -34 -130 19 -54 56 -80 114 -80 34 0 51
6 70 23 14 13 25 27 25 32 0 13 -27 9 -40 -7 -21 -26 -87 -19 -115 11 -44 48
-35 54 71 54 l97 0 -6 38 c-9 53 -55 92 -108 92 -33 0 -47 -6 -74 -33z m123
-17 c41 -38 29 -50 -48 -50 -77 0 -88 12 -50 50 26 26 70 26 98 0z"/>
<path d="M7458 4895 c-75 -42 -77 -179 -3 -213 41 -19 109 -15 138 9 57 44 58
158 1 195 -35 23 -103 28 -136 9z m113 -44 c32 -33 37 -67 14 -110 -38 -75
-145 -44 -145 41 0 48 14 76 43 88 38 15 58 11 88 -19z"/>
<path d="M7700 4745 c0 -160 1 -165 21 -165 18 0 20 6 19 58 -2 77 -3 75 22
52 25 -23 93 -27 119 -7 59 45 64 151 9 200 -28 25 -39 28 -73 24 -26 -4 -47
-14 -59 -29 l-18 -23 0 28 c0 20 -5 27 -20 27 -19 0 -20 -7 -20 -165z m173
103 c28 -34 19 -117 -17 -140 -6 -4 -25 -8 -43 -8 -40 0 -73 39 -73 87 0 48
49 98 88 89 15 -4 35 -16 45 -28z"/>
<path d="M7990 4746 c0 -162 1 -166 21 -166 19 0 21 5 17 60 -1 33 -1 60 2 60
3 0 14 -7 24 -15 11 -8 37 -15 59 -15 51 0 91 39 100 97 12 71 -21 128 -80
139 -35 7 -93 -11 -93 -29 0 -6 -3 -7 -7 -3 -5 4 -8 13 -8 19 0 7 -8 13 -17
15 -17 3 -18 -10 -18 -162z m148 118 c22 -15 30 -29 47 -83 5 -18 4 -22 -6
-16 -9 6 -11 2 -6 -14 3 -13 3 -21 0 -18 -2 3 -13 -3 -24 -14 -12 -12 -33 -19
-56 -19 -31 0 -40 5 -50 27 -21 45 -16 101 12 128 28 29 51 31 83 9z"/>
<path d="M8320 4897 c-38 -19 -62 -73 -55 -126 10 -82 85 -128 158 -97 35 14
56 40 44 52 -3 4 -16 -1 -29 -10 -36 -26 -93 -21 -117 10 -38 48 -30 54 74 54
52 0 95 3 95 8 0 30 -25 85 -47 102 -29 23 -85 26 -123 7z m105 -42 c39 -38
32 -45 -50 -45 -46 0 -75 4 -75 10 0 21 49 60 75 60 14 0 37 -11 50 -25z"/>
<path d="M8550 4791 c0 -114 1 -121 20 -121 18 0 20 7 20 85 0 74 3 87 22 105
27 25 50 26 71 2 13 -14 17 -39 17 -105 0 -80 2 -87 20 -87 18 0 20 7 20 83 0
90 9 112 51 122 46 11 59 -14 59 -116 0 -82 1 -89 20 -89 19 0 20 7 20 98 0
103 -3 113 -37 131 -32 17 -67 13 -96 -9 l-26 -21 -22 22 c-17 17 -29 20 -58
15 -20 -3 -41 -12 -47 -21 -15 -20 -26 -19 -22 2 2 10 -4 19 -14 21 -16 3 -18
-8 -18 -117z"/>
<path d="M9004 4891 c-50 -30 -68 -105 -39 -161 22 -43 53 -60 110 -60 41 0
56 5 74 24 18 19 19 25 8 29 -8 3 -23 -1 -34 -8 -29 -23 -81 -18 -108 10 -47
46 -36 55 70 55 105 0 107 2 81 64 -27 65 -99 85 -162 47z m115 -37 c12 -15
21 -31 21 -35 0 -5 -33 -9 -74 -9 -70 0 -74 1 -69 20 14 52 89 66 122 24z"/>
<path d="M9240 4790 c0 -113 1 -120 20 -120 18 0 20 7 20 83 0 68 3 87 18 99
29 25 53 29 78 13 22 -14 24 -22 24 -105 0 -83 1 -90 20 -90 19 0 20 7 20 95
0 88 -2 98 -25 120 -30 31 -73 32 -109 4 l-26 -20 0 20 c0 14 -6 21 -20 21
-19 0 -20 -7 -20 -120z"/>
<path d="M9810 4903 c0 -4 17 -58 37 -120 33 -99 40 -113 58 -111 16 2 26 22
49 91 16 48 30 86 32 84 2 -2 17 -41 33 -88 23 -66 34 -85 50 -87 12 -2 21 -1
21 1 0 3 18 55 40 117 34 96 38 112 24 117 -21 8 -25 1 -53 -101 -13 -47 -27
-86 -30 -86 -4 0 -20 43 -35 95 -25 82 -32 96 -48 93 -15 -2 -27 -25 -50 -98
l-31 -95 -30 98 c-24 77 -34 97 -49 97 -10 0 -18 -3 -18 -7z"/>
<path d="M10259 4895 c-58 -31 -74 -127 -31 -185 38 -50 130 -56 175 -11 31
30 12 38 -34 14 -59 -30 -106 -13 -123 45 -7 22 -6 22 88 22 90 0 96 1 96 20
0 29 -26 76 -52 94 -28 20 -84 20 -119 1z m108 -37 c41 -38 31 -48 -52 -48
-82 0 -89 7 -50 45 30 31 71 32 102 3z"/>
</g>
</svg>
