<?xml version="1.0" standalone="no"?>
<!DOCTYPE svg PUBLIC "-//W3C//DTD SVG 20010904//EN"
 "http://www.w3.org/TR/2001/REC-SVG-20010904/DTD/svg10.dtd">
<svg version="1.0" xmlns="http://www.w3.org/2000/svg"
 width="1254.000000pt" height="1254.000000pt" viewBox="0 0 1254.000000 1254.000000"
 preserveAspectRatio="xMidYMid meet">

<g transform="translate(0.000000,1254.000000) scale(0.100000,-0.100000)"
fill="#000000" stroke="none">
<path d="M4190 9081 l0 -1191 423 0 422 0 -1 770 0 770 366 0 c388 0 500 -7
725 -45 568 -97 1091 -347 1507 -719 557 -498 891 -1123 1004 -1876 25 -167
30 -534 10 -720 -71 -657 -343 -1238 -816 -1743 -379 -404 -970 -732 -1535
-850 -256 -54 -355 -61 -825 -62 -341 0 -435 3 -436 13 -1 6 -2 318 -3 692
l-1 680 -420 0 -420 0 0 -1111 0 -1111 883 5 c935 5 968 6 1262 57 766 132
1517 526 2069 1085 575 583 953 1349 1060 2150 50 369 40 825 -24 1182 -140
776 -496 1469 -1045 2032 -309 317 -609 539 -995 735 -433 221 -874 352 -1405
417 -170 21 -227 23 -992 26 l-813 4 0 -1190z"/>
<path d="M6283 7229 c-52 -26 -129 -107 -153 -163 -27 -61 -33 -131 -22 -287
16 -237 -14 -459 -94 -693 -73 -214 -250 -530 -398 -711 -65 -80 -72 -97 -56
-135 13 -32 44 -46 83 -36 12 3 61 28 107 56 308 185 577 483 736 815 114 239
157 419 157 660 0 133 -4 173 -21 239 -60 217 -201 324 -339 255z"/>
<path d="M4035 7115 c-238 -44 -432 -189 -536 -400 -105 -213 -106 -434 -5
-650 91 -192 252 -330 466 -396 97 -30 289 -33 389 -5 197 54 372 195 465 376
233 450 -32 985 -534 1076 -92 16 -153 16 -245 -1z"/>
</g>
</svg>
